<svg xmlns="http://www.w3.org/2000/svg" height="24px" viewBox="0 -960 960 960" width="24px" fill="#1f1f1f"><path d="M324.04-108.08h201.92v-167.69H255.77v99.42q0 28.16 20.05 48.22 20.06 20.05 48.22 20.05Zm257.88 0h201.73q28.16 0 48.22-20.05 20.05-20.06 20.05-48.22v-99.42h-270v167.69ZM136.04-260.73q-11.45 0-19.71-8.13-8.25-8.12-8.25-19.76v-495.11q0-28.36 19.91-48.28 19.92-19.91 48.28-19.91h495.11q11.64 0 19.86 8.24 8.22 8.24 8.22 19.66 0 11.64-8.22 19.85t-19.86 8.21H176.35q-5.39 0-8.85 3.46t-3.46 8.85v495.03q0 11.64-8.27 19.76-8.27 8.13-19.73 8.13Zm119.73-71h270.19v-168.46H255.77v168.46Zm326.15 0h270v-168.46h-270v168.46ZM255.77-556.15h596.15V-636q0-28.17-20.05-48.2-20.06-20.03-48.22-20.03H324.04q-28.16 0-48.22 20.05-20.05 20.06-20.05 48.22v79.81Z"/></svg>